<svg width="52" height="54" viewBox="0 0 52 54" fill="none" xmlns="http://www.w3.org/2000/svg">
<g id="Config">
<path id="Vector" d="M25.5706 34.5C29.7127 34.5 33.0706 31.1421 33.0706 27C33.0706 22.8579 29.7127 19.5 25.5706 19.5C21.4284 19.5 18.0706 22.8579 18.0706 27C18.0706 31.1421 21.4284 34.5 25.5706 34.5Z" stroke="#DDDEDF" stroke-width="3.75"/>
<path id="Vector_2" d="M4.7236 23.598C5.90498 24.3403 6.6651 25.6047 6.6651 26.9997C6.66507 28.395 5.90495 29.6595 4.7236 30.4017C3.9197 30.9067 3.40175 31.3105 3.03325 31.7907C2.22598 32.843 1.8697 34.1725 2.0428 35.4873C2.1726 36.4733 2.75503 37.482 3.91988 39.4998C5.08475 41.5173 5.66718 42.526 6.4562 43.1315C7.50825 43.9388 8.8379 44.295 10.1526 44.122C10.7527 44.043 11.3612 43.7962 12.2004 43.3527C13.4341 42.7007 14.9095 42.6747 16.1179 43.3725C17.3262 44.0702 18.0412 45.3608 18.0933 46.755C18.1288 47.7038 18.2195 48.3542 18.4511 48.9135C18.9586 50.1385 19.932 51.112 21.157 51.6195C22.076 52 23.2408 52 25.5705 52C27.9003 52 29.065 52 29.984 51.6195C31.209 51.112 32.1826 50.1385 32.6901 48.9135C32.9216 48.3542 33.0123 47.7037 33.0478 46.7552C33.0998 45.3607 33.8148 44.0702 35.0233 43.3725C36.2316 42.675 37.7068 42.701 38.9403 43.353C39.7798 43.7965 40.3883 44.0432 40.9883 44.1222C42.3031 44.2955 43.6328 43.939 44.6848 43.1317C45.4738 42.5265 46.0563 41.5175 47.2213 39.5C47.7398 38.6018 48.1431 37.9035 48.4421 37.318M46.4173 30.402C45.2361 29.6597 44.4761 28.3953 44.4758 27.0003C44.4758 25.605 45.2361 24.3403 46.4173 23.598C47.2213 23.093 47.739 22.6893 48.1075 22.209C48.9148 21.157 49.2711 19.8273 49.0981 18.5125C48.9683 17.5265 48.3858 16.5177 47.2208 14.5001C46.0561 12.4825 45.4736 11.4737 44.6846 10.8683C43.6326 10.061 42.3028 9.70475 40.988 9.87783C40.388 9.95685 39.7796 10.2035 38.9403 10.6471C37.7066 11.2991 36.2313 11.3251 35.023 10.6274C33.8148 9.92975 33.0998 8.63925 33.0478 7.24508C33.0123 6.2963 32.9216 5.64588 32.6901 5.08658C32.1826 3.86145 31.209 2.88808 29.984 2.3806C29.065 2 27.9003 2 25.5705 2C23.2408 2 22.076 2 21.157 2.3806C19.932 2.88808 18.9586 3.86145 18.4511 5.08658C18.2195 5.64583 18.1288 6.2962 18.0933 7.24485C18.0412 8.63915 17.3262 9.92978 16.1178 10.6274C14.9095 11.3251 13.4342 11.299 12.2007 10.647C11.3614 10.2034 10.7528 9.95673 10.1527 9.8777C8.83793 9.70463 7.50828 10.0609 6.45623 10.8682C5.6672 11.4736 5.08478 12.4824 3.9199 14.5C3.40133 15.3982 2.99818 16.0965 2.699 16.6818" stroke="#DDDEDF" stroke-width="3.75" stroke-linecap="round"/>
</g>
</svg>
