<svg width="54" height="54" viewBox="0 0 54 54" fill="none" xmlns="http://www.w3.org/2000/svg">
<g id="Home">
<path id="Vector" d="M52 27.5098V31.3125C52 41.0645 52 45.9407 49.071 48.9702C46.1422 52 41.428 52 32 52H22C12.5719 52 7.85788 52 4.92893 48.9702C2 45.9407 2 41.0645 2 31.3125V27.5098C2 21.7887 2 18.9282 3.298 16.5569C4.596 14.1855 6.96737 12.7138 11.7101 9.77032L16.7101 6.66717C21.7235 3.55572 24.2302 2 27 2C29.7698 2 32.2765 3.55572 37.29 6.66717L42.29 9.7703C47.0327 12.7138 49.404 14.1855 50.702 16.5569" stroke="#002135" stroke-width="3.75" stroke-linecap="round"/>
<path id="Vector_2" d="M34.5 42H19.5" stroke="#002135" stroke-width="3.75" stroke-linecap="round"/>
</g>
</svg>
