<svg width="54" height="54" viewBox="0 0 54 54" fill="none" xmlns="http://www.w3.org/2000/svg">
<g id="Sair">
<path id="Vector" d="M34.5 27H2M2 27L10.75 19.5M2 27L10.75 34.5" stroke="#DDDEDF" stroke-width="3.75" stroke-linecap="round" stroke-linejoin="round"/>
<path id="Vector_2" d="M19.5049 14.5C19.5352 9.06243 19.7763 6.11765 21.6972 4.1967C23.894 2 27.4295 2 34.5005 2H37.0005C44.0715 2 47.6073 2 49.8038 4.1967C52.0005 6.3934 52.0005 9.92893 52.0005 17V37C52.0005 44.071 52.0005 47.6065 49.8038 49.8032C47.8828 51.7242 44.938 51.9655 39.5 51.9958M19.5049 39.5C19.5352 44.9375 19.7763 47.8822 21.6972 49.8032C23.3005 51.4065 25.6168 51.8398 29.5 51.9568" stroke="#DDDEDF" stroke-width="3.75" stroke-linecap="round"/>
</g>
</svg>
